<?xml version="1.0" encoding="UTF-8"?>
<svg xmlns="http://www.w3.org/2000/svg" viewBox="0 0 24 24">
    <path d="M 19.75 4.1875 L 18.375 5.625 C 20.075 7.325 21 9.595 21 12 C 21 14.403 20.072 16.64675 18.375 18.34375 L 19.78125 19.78125 C 21.85525 17.70625 23 14.937 23 12 C 23 9.061 21.85925 6.29675 19.78125 4.21875 L 19.75 4.1875 z M 4.1875 4.25 C 2.1225 6.324 1 9.07 1 12 C 1 14.939 2.14175 17.70425 4.21875 19.78125 L 5.625 18.375 C 3.925 16.675 3 14.405 3 12 C 3 9.604 3.936 7.35325 5.625 5.65625 L 4.1875 4.25 z M 12 4.34375 C 7.772 4.34375 4.34375 7.772 4.34375 12 C 4.34375 16.228 7.772 19.65625 12 19.65625 C 16.228 19.65625 19.65625 16.228 19.65625 12 C 19.65625 7.772 16.228 4.34375 12 4.34375 z M 12 6.34375 C 15.125 6.34375 17.65625 8.875 17.65625 12 C 17.65625 15.125 15.125 17.65625 12 17.65625 C 8.875 17.65625 6.34375 15.125 6.34375 12 C 6.34375 8.875 8.875 6.34375 12 6.34375 z M 11 7 L 11 14 L 13 14 L 13 7 L 11 7 z M 11 15 L 11 17 L 13 17 L 13 15 L 11 15 z"/>
</svg>