<?xml version="1.0"?>
<svg xmlns="http://www.w3.org/2000/svg" viewBox="0 0 26 26" enable-background="new 0 0 26 26">
    <path d="M 1.59375 0 L 0.8125 5.3125 L 2.46875 4.53125 L 3.625 6.75 L 3.59375 6.75 C 4.064555 7.6916099 4.064555 8.6208901 3.59375 9.5625 L 2.5 11.625 L 2.5 11.65625 C 1.770805 13.11464 1.770805 14.79161 2.5 16.25 L 3.59375 18.34375 C 4.064555 19.28536 4.064555 20.21464 3.59375 21.15625 L 3.625 21.15625 L 1.625 25.03125 L 3.375 25.96875 L 5.375 22.0625 L 5.40625 22.0625 C 6.135445 20.60411 6.135445 18.89589 5.40625 17.4375 L 5.375 17.4375 L 4.28125 15.34375 C 3.810445 14.40214 3.810445 13.50411 4.28125 12.5625 L 5.375 10.46875 L 5.40625 10.4375 C 6.135445 8.9791099 6.135445 7.3021401 5.40625 5.84375 L 5.375 5.84375 L 4.28125 3.6875 L 6.09375 2.8125 L 1.59375 0 z M 10.59375 0 L 9.8125 5.3125 L 11.46875 4.53125 L 12.625 6.75 L 12.59375 6.75 C 13.064555 7.6916099 13.064555 8.6208901 12.59375 9.5625 L 11.5 11.625 L 11.5 11.65625 C 10.770805 13.11464 10.770805 14.79161 11.5 16.25 L 12.59375 18.34375 C 13.064555 19.28536 13.064555 20.21464 12.59375 21.15625 L 12.625 21.15625 L 10.625 25.03125 L 12.375 25.96875 L 14.375 22.0625 L 14.40625 22.0625 C 15.135445 20.60411 15.135445 18.89589 14.40625 17.4375 L 14.375 17.4375 L 13.28125 15.34375 C 12.810445 14.40214 12.810445 13.50411 13.28125 12.5625 L 14.375 10.46875 L 14.40625 10.4375 C 15.135445 8.9791099 15.135445 7.3021401 14.40625 5.84375 L 14.375 5.84375 L 13.28125 3.6875 L 15.09375 2.8125 L 10.59375 0 z M 19.59375 0 L 18.8125 5.3125 L 20.46875 4.53125 L 21.625 6.75 L 21.59375 6.75 C 22.064555 7.6916099 22.064555 8.6208901 21.59375 9.5625 L 20.5 11.625 L 20.5 11.65625 C 19.770805 13.11464 19.770805 14.79161 20.5 16.25 L 21.59375 18.34375 C 22.064555 19.28536 22.064555 20.21464 21.59375 21.15625 L 21.625 21.15625 L 19.625 25.03125 L 21.375 25.96875 L 23.375 22.0625 L 23.40625 22.0625 C 24.135445 20.60411 24.135445 18.89589 23.40625 17.4375 L 23.375 17.4375 L 22.28125 15.34375 C 21.810445 14.40214 21.810445 13.50411 22.28125 12.5625 L 23.375 10.46875 L 23.40625 10.4375 C 24.135445 8.9791099 24.135445 7.3021401 23.40625 5.84375 L 23.375 5.84375 L 22.28125 3.6875 L 24.09375 2.8125 L 19.59375 0 z"/>
</svg>
