<?xml version="1.0" encoding="utf-8"?>
<!-- Svg Vector Icons : http://www.onlinewebfonts.com/icon -->
<!DOCTYPE svg PUBLIC "-//W3C//DTD SVG 1.1//EN" "http://www.w3.org/Graphics/SVG/1.1/DTD/svg11.dtd">
<svg version="1.1" xmlns="http://www.w3.org/2000/svg" xmlns:xlink="http://www.w3.org/1999/xlink" x="0px" y="0px" viewBox="0 0 1000 1000" enable-background="new 0 0 1000 1000" xml:space="preserve">
<metadata> Svg Vector Icons : http://www.onlinewebfonts.com/icon </metadata>
<g><g transform="translate(0.000000,511.000000) scale(0.100000,-0.100000)"><path d="M4357.6,3473.9c-911.9-73.5-1774.9-258.6-2640.6-569c-340.3-119.8-1434.6-642.4-1557.1-740.4l-59.9-49L1256.9,114.7c634.3-1099.8,1208.7-2096.1,1276.7-2210.4l119.8-206.9l212.3,119.8c204.2,114.3,574.4,283.1,628.8,283.1c38.1,0,160.6-408.3,209.6-691.4c21.8-133.4,40.8-337.6,40.8-454.6v-215.1h245h245v255.9c0,353.9-98,873.8-234.1,1225c-19,46.3,359.3,119.8,745.9,144.3l269.5,16.3l89.8-228.7c149.7-389.3,220.5-713.2,236.8-1078l16.3-334.8h239.6h242.3v269.5c0,383.8-98,868.4-264.1,1298.5c-24.5,62.6,533.6-62.6,952.8-215.1l239.6-87.1l51.7-168.8c84.4-274.9,136.1-596.2,136.1-854.8v-242.3h242.3c234.1,0,242.2,2.7,258.6,68.1c19,79-21.8,593.4-65.3,792.2l-29.9,136.1L8566.1-182c661.5,1143.3,1230.4,2131.5,1265.8,2194.1l68.1,111.6l-157.9,95.3c-217.8,130.7-816.7,430.1-1110.6,552.6c-756.8,313.1-1600.7,533.5-2504.4,653.3C5838.4,3463,4643.4,3495.7,4357.6,3473.9z M5718.7,2809.7c735-65.3,1475.4-220.5,2175.1-462.8c500.8-174.2,1094.3-441,1083.4-487.3C8960.8,1786.1,7107-1407,7082.5-1401.6c-38.1,10.9-258.6,579.9-332.1,849.3c-84.4,318.5-125.3,721.4-103.5,1037.2l19,253.2l196,8.2l196,8.2l-315.8,590.7c-174.2,326.7-324,593.4-334.9,593.4c-8.1,0-157.9-266.8-332.1-590.7l-313-593.4l196-8.2l196-8.2V283.5c2.7-498.2,38.1-726.8,179.6-1162.4c46.3-133.4,87.1-258.6,95.3-274.9c8.2-19.1-51.7-13.6-168.8,19.1c-166.1,46.3-522.7,106.2-860.2,147l-127.9,16.3l-70.8,223.2c-141.6,449.2-196,860.2-163.3,1255l19.1,234.1h198.7h198.7L5127.9,1356l-326.7,612.5l-323.9-604.3c-179.7-332.1-323.9-607.1-323.9-612.5c0-5.5,89.8-10.9,198.7-10.9h196l-8.2-337.5c-13.6-389.3,40.8-816.7,144.3-1146.1c35.4-117.1,62.6-217.8,57.2-223.2c-2.7-2.7-122.5-19-264.1-35.4c-141.5-16.3-364.8-51.7-495.4-78.9l-239.6-46.3l-38.1,68.1c-54.4,108.9-196,568.9-228.7,743.2c-46.3,253.2-65.3,623.4-43.6,846.6l19.1,209.6h187.8c103.4,0,187.8,8.2,187.8,19.1c0,21.8-634.3,1208.7-639.7,1200.5c-16.3-19-639.7-1195-639.7-1205.9c0-5.4,84.4-13.6,190.6-19.1l190.6-8.2l8.2-476.4c10.9-530.8,49-748.6,201.5-1184.2c51.7-149.7,100.7-291.3,106.2-313.1c8.2-29.9-38.1-62.6-163.3-111.6l-176.9-73.5L1964.7,196.3c-517.2,895.6-944.6,1644.2-947.3,1663.3c-10.9,46.3,582.6,313.1,1072.6,481.8c688.7,239.6,1464.6,405.6,2145.1,465.5C4613.4,2839.6,5343,2839.6,5718.7,2809.7z"/></g></g>
</svg>