<?xml version="1.0"?>
<svg xmlns="http://www.w3.org/2000/svg" viewBox="0 0 50 50">
    <path d="M 24.90625 1.96875 A 1.0001 1.0001 0 0 0 24.78125 2 A 1.0001 1.0001 0 0 0 24 3 L 24 8.53125 A 1.0043849 1.0043849 0 0 0 24 9.40625 L 24 16.53125 A 1.0043849 1.0043849 0 0 0 24 17.40625 L 24 24.53125 A 1.0043849 1.0043849 0 0 0 24 25.40625 L 24 30.09375 C 21.161224 30.567458 19 33.028607 19 36 C 19 39.309 21.691 42 25 42 C 28.309 42 31 39.309 31 36 C 31 33.028607 28.838776 30.567458 26 30.09375 L 26 26 L 31 26 A 1.0001 1.0001 0 1 0 31 24 L 26 24 L 26 18 L 31 18 A 1.0001 1.0001 0 1 0 31 16 L 26 16 L 26 10 L 31 10 A 1.0001 1.0001 0 1 0 31 8 L 26 8 L 26 3 A 1.0001 1.0001 0 0 0 24.90625 1.96875 z M 2.71875 35 A 1.0043849 1.0043849 0 0 0 3 37 C 3.1336391 37 3.9254875 37.187742 4.6875 37.4375 C 5.4495125 37.687258 6.1757547 38 7 38 C 7.8242453 38 8.5498639 37.687299 9.3125 37.4375 C 10.075136 37.187701 10.869811 37 11 37 C 11.130189 37 11.925902 37.187591 12.6875 37.4375 C 13.449098 37.687409 14.174383 38 15 38 A 1.0001 1.0001 0 1 0 15 36 C 14.877617 36 14.074652 35.812591 13.3125 35.5625 C 12.550348 35.312409 11.826811 35 11 35 C 10.173189 35 9.4513639 35.312299 8.6875 35.5625 C 7.9236361 35.812701 7.1127547 36 7 36 C 6.8872453 36 6.0759875 35.812742 5.3125 35.5625 C 4.5490125 35.312258 3.8273609 35 3 35 A 1.0001 1.0001 0 0 0 2.90625 35 A 1.001098 1.001098 0 0 0 2.8125 35 A 1.0043849 1.0043849 0 0 0 2.71875 35 z M 39 35 C 38.173189 35 37.449652 35.312409 36.6875 35.5625 C 35.925348 35.812591 35.122383 36 35 36 A 1.0001 1.0001 0 1 0 35 38 C 35.825617 38 36.550902 37.687409 37.3125 37.4375 C 38.074098 37.187591 38.869811 37 39 37 C 39.130189 37 39.924864 37.187701 40.6875 37.4375 C 41.450136 37.687299 42.175755 38 43 38 C 43.824245 38 44.550487 37.687258 45.3125 37.4375 C 46.074513 37.187742 46.866361 37 47 37 A 1.0001 1.0001 0 1 0 47 35 C 46.172639 35 45.450987 35.312258 44.6875 35.5625 C 43.924013 35.812742 43.112755 36 43 36 C 42.887245 36 42.076364 35.812701 41.3125 35.5625 C 40.548636 35.312299 39.826811 35 39 35 z M 6.875 44.1875 A 1.0001 1.0001 0 0 0 6.78125 44.21875 A 1.0001 1.0001 0 0 0 6.46875 46.0625 C 8.3495647 47.289497 10.586053 48 13 48 C 15.192946 48 17.233571 47.402272 19 46.375 C 20.766429 47.402272 22.807054 48 25 48 C 27.192946 48 29.233571 47.402272 31 46.375 C 32.766429 47.402272 34.807054 48 37 48 C 39.413947 48 41.650435 47.289497 43.53125 46.0625 A 1.0001 1.0001 0 1 0 42.46875 44.375 C 40.897565 45.400003 39.016053 46 37 46 C 35.130161 46 33.373126 45.486385 31.875 44.59375 C 31.850211 44.57898 31.837148 44.546226 31.8125 44.53125 A 1.0001 1.0001 0 0 0 31.03125 44.1875 A 1.0001 1.0001 0 0 0 30.9375 44.1875 A 1.0001 1.0001 0 0 0 30.8125 44.21875 A 1.0001 1.0001 0 0 0 30.78125 44.21875 A 1.0001 1.0001 0 0 0 30.5625 44.3125 A 1.0001 1.0001 0 0 0 30.34375 44.4375 A 1.0001 1.0001 0 0 0 30.1875 44.5625 C 28.676331 45.477204 26.89479 46 25 46 C 23.130161 46 21.373126 45.486385 19.875 44.59375 C 19.850211 44.57898 19.837148 44.546226 19.8125 44.53125 A 1.0001 1.0001 0 0 0 19.03125 44.1875 A 1.0001 1.0001 0 0 0 18.8125 44.21875 A 1.0001 1.0001 0 0 0 18.78125 44.21875 A 1.0001 1.0001 0 0 0 18.5625 44.3125 A 1.0001 1.0001 0 0 0 18.34375 44.4375 A 1.0001 1.0001 0 0 0 18.1875 44.5625 C 16.676331 45.477204 14.89479 46 13 46 C 10.983947 46 9.1024353 45.400003 7.53125 44.375 A 1.0001 1.0001 0 0 0 6.96875 44.1875 A 1.0001 1.0001 0 0 0 6.875 44.1875 z"/>
</svg>
