<?xml version="1.0" encoding="UTF-8"?>
<svg xmlns="http://www.w3.org/2000/svg" viewBox="0 0 50 50">
    <path style="text-indent:0;text-align:start;line-height:normal;text-transform:none;block-progression:tb;-inkscape-font-specification:Sans" d="M 0.8125 17 A 1.0001 1.0001 0 0 0 0 18 L 0 24 A 1.0001 1.0001 0 0 0 0.65625 24.9375 L 8 27.6875 L 8 39 A 1.0001 1.0001 0 0 0 9 40 L 32 40 A 1.0001 1.0001 0 0 0 32.8125 39.5625 L 46.5 20 L 49 20 A 1.0001 1.0001 0 1 0 49 18 L 46.1875 18 L 45.8125 18 L 45 18 A 1.0001 1.0001 0 0 0 44.90625 18 A 1.0001 1.0001 0 0 0 44.46875 18.15625 L 33 25.21875 L 33 24 A 1.0001 1.0001 0 0 0 32 23 L 22 23 L 22 22 L 25 22 A 1.0001 1.0001 0 0 0 26 21 L 26 18 A 1.0001 1.0001 0 0 0 25 17 L 17 17 A 1.0001 1.0001 0 0 0 16.90625 17 A 1.0001 1.0001 0 0 0 16 18 L 16 21 A 1.0001 1.0001 0 0 0 17 22 L 20 22 L 20 23 L 9.625 23 L 7.90625 19.5625 A 1.0001 1.0001 0 0 0 7.3125 19.0625 L 1.3125 17.0625 A 1.0001 1.0001 0 0 0 0.90625 17 A 1.0001 1.0001 0 0 0 0.8125 17 z M 18 19 L 24 19 L 24 20 L 21.1875 20 A 1.0001 1.0001 0 0 0 20.78125 20 L 18 20 L 18 19 z M 2 19.375 L 6.28125 20.8125 L 8 24.25 L 8 25.5625 L 2 23.3125 L 2 19.375 z M 43.1875 21.28125 L 31.5 38 L 10 38 L 10 27.28125 A 1.0001 1.0001 0 0 0 10 26.6875 L 10 25 L 31 25 L 31 27 A 1.0001 1.0001 0 0 0 32.53125 27.84375 L 43.1875 21.28125 z M 48 27 C 48 27 46 30.895 46 32 C 46 33.105 46.895 34 48 34 C 49.105 34 50 33.105 50 32 C 50 30.895 48 27 48 27 z" overflow="visible" font-family="Sans"/>
</svg>