<?xml version="1.0"?>
<svg xmlns="http://www.w3.org/2000/svg" viewBox="0 0 50 50">
    <path style="text-indent:0;text-align:start;line-height:normal;text-transform:none;block-progression:tb;-inkscape-font-specification:Sans" d="M 39.4375 7.4375 L 37.78125 8.5625 C 39.082856 10.476341 39.826662 12.699662 39.96875 15 L 31.125 15 C 31.255 15.63 31.4 16.29 31.5 17 L 39.9375 17 C 39.740818 18.922559 39.041012 21.441924 38.28125 24 L 32 24 L 32 25 L 32 26 L 37.6875 26 C 36.935541 28.502101 36.218979 30.948486 36.03125 33 L 31.5 33 C 31.4 33.71 31.255 34.37 31.125 35 L 36.03125 35 C 36.163245 37.526389 36.727093 40.02939 37.6875 42.375 L 39.53125 41.625 C 38.665717 39.511102 38.188641 37.275372 38.0625 35 L 48 35 L 48 33 L 38.0625 33 C 38.282301 31.168311 39.025771 28.626233 39.8125 26 L 48 26 L 48 24 L 40.40625 24 C 41.132037 21.545572 41.801208 19.118183 41.96875 17 L 48 17 L 48 15 L 41.96875 15 C 41.829272 12.293395 40.97015 9.6910596 39.4375 7.4375 z M 24.4375 9 C 20.022295 9 14.541667 10.748282 10.0625 13.5625 C 5.5833326 16.376718 2 20.331014 2 25 C 2 29.668986 5.5833326 33.623282 10.0625 36.4375 C 14.541667 39.251718 20.022295 41 24.4375 41 C 25.58891 41 26.57891 40.358788 27.28125 39.4375 C 27.98359 38.516212 28.483796 37.307874 28.875 35.875 C 29.657407 33.009252 30 29.19475 30 25 C 30 20.80525 29.657407 16.990748 28.875 14.125 C 28.483796 12.692126 27.98359 11.483788 27.28125 10.5625 C 26.57891 9.6412115 25.58891 9 24.4375 9 z M 24.4375 11 C 24.89109 11 25.232028 11.183788 25.6875 11.78125 C 26.142972 12.378712 26.618704 13.374124 26.96875 14.65625 C 27.668843 17.220502 28 20.91475 28 25 C 28 29.08525 27.668843 32.779498 26.96875 35.34375 C 26.618704 36.625876 26.142972 37.621288 25.6875 38.21875 C 25.232028 38.816212 24.89109 39 24.4375 39 C 20.562705 39 15.288333 37.365782 11.125 34.75 C 6.9616674 32.134218 4 28.611014 4 25 C 4 21.388986 6.9616674 17.865782 11.125 15.25 C 15.288333 12.634218 20.562705 11 24.4375 11 z" overflow="visible" font-family="Sans"/>
</svg>
