<?xml version="1.0" encoding="UTF-8" standalone="no"?>
<svg
   xmlns:dc="http://purl.org/dc/elements/1.1/"
   xmlns:cc="http://creativecommons.org/ns#"
   xmlns:rdf="http://www.w3.org/1999/02/22-rdf-syntax-ns#"
   xmlns:svg="http://www.w3.org/2000/svg"
   xmlns="http://www.w3.org/2000/svg"
   xmlns:sodipodi="http://sodipodi.sourceforge.net/DTD/sodipodi-0.dtd"
   xmlns:inkscape="http://www.inkscape.org/namespaces/inkscape"
   width="97.285263mm"
   height="194.28215mm"
   viewBox="0 0 97.285263 194.28215"
   version="1.1"
   id="svg8"
   inkscape:version="1.0.2 (e86c870879, 2021-01-15)"
   sodipodi:docname="fuel_gauge_background.svg">
  <defs
     id="defs2">
    <inkscape:perspective
       sodipodi:type="inkscape:persp3d"
       inkscape:vp_x="0 : 423.46323 : 1"
       inkscape:vp_y="0 : 999.99997 : 0"
       inkscape:vp_z="744.09452 : 423.46323 : 1"
       inkscape:persp3d-origin="372.04726 : 248.06953 : 1"
       id="perspective6367" />
  </defs>
  <sodipodi:namedview
     id="base"
     pagecolor="#ffffff"
     bordercolor="#666666"
     borderopacity="1.0"
     inkscape:pageopacity="0.0"
     inkscape:pageshadow="2"
     inkscape:zoom="0.7"
     inkscape:cx="38.490894"
     inkscape:cy="457.03039"
     inkscape:document-units="mm"
     inkscape:current-layer="layer1"
     inkscape:document-rotation="0"
     showgrid="false"
     fit-margin-top="0"
     fit-margin-left="0"
     fit-margin-right="0"
     fit-margin-bottom="0"
     inkscape:window-width="1920"
     inkscape:window-height="1065"
     inkscape:window-x="3840"
     inkscape:window-y="0"
     inkscape:window-maximized="1" />
  <metadata
     id="metadata5">
    <rdf:RDF>
      <cc:Work
         rdf:about="">
        <dc:format>image/svg+xml</dc:format>
        <dc:type
           rdf:resource="http://purl.org/dc/dcmitype/StillImage" />
        <dc:title></dc:title>
      </cc:Work>
    </rdf:RDF>
  </metadata>
  <g
     inkscape:label="Calque 1"
     inkscape:groupmode="layer"
     id="layer1"
     transform="translate(-30.486448,-21.404938)">
    <g
       id="g1008"
       inkscape:export-xdpi="96"
       inkscape:export-ydpi="96">
      <path
         style="fill:#000000;fill-opacity:1;fill-rule:nonzero;stroke:none;stroke-width:0.264583"
         d="m 57.554694,106.815 c -1.342646,0 -2.438008,0.90866 -2.438008,2.01662 v 21.21971 l 11.889057,0.16554 0.01503,-12.40073 h 2.242367 c 0.515226,0 0.933066,0.34115 0.933066,0.76752 v 9.3457 c 0,1.25331 1.42412,2.34771 3.039986,2.34771 1.526056,0 3.22058,-1.00102 3.22058,-2.34771 -0.02342,-0.3135 -1.234054,-5.88433 -1.234054,-5.88433 0,-0.0129 -0.255841,-1.56514 -0.255841,-1.56514 v -7.11839 c 0,-0.7623 -0.308573,-1.3912 -0.933064,-1.91127 l -3.973052,-3.28078 c -0.273174,0 -1.038413,0.63207 -1.038413,0.63207 0,0.22936 1.971477,1.85108 1.971477,1.85108 l -0.0602,2.7691 c 0,0.97874 0.961667,1.77583 2.15207,1.77583 h 0.541779 l -0.19564,5.28236 0.270888,1.82098 1.203955,5.34255 c 0.04681,0.86889 -0.91331,1.38455 -1.670487,1.38455 -0.698645,0 -1.519994,-0.48179 -1.519994,-1.09861 l 0.01503,-9.36075 c 0,-1.14027 -1.124339,-2.06177 -2.498206,-2.06177 h -2.39286 c 0.167812,-0.01 0.165542,-6.14768 0.165542,-7.44947 v -0.22575 c 0,-1.10796 -1.084215,-2.01662 -2.422959,-2.01662 h -7.028087 z m 0,1.45979 h 7.028088 c 0.374687,0 0.662175,0.24997 0.662175,0.55683 v 4.89107 c 0,0.3101 -0.287488,0.54178 -0.662175,0.54178 h -7.028088 c -0.378629,0 -0.662175,-0.23168 -0.662175,-0.54178 v -4.89107 c 0,-0.30686 0.283546,-0.55683 0.662175,-0.55683 z m 14.658155,3.92791 c 0,0 0.596929,0.10313 0.73742,0.13544 0.28883,0.0614 0.473782,0.42087 0.481584,0.73742 0.0078,0.31983 0,1.27921 0,1.27921 -0.885957,-0.16152 -1.219004,-0.53906 -1.219004,-0.88792 z"
         id="path6946"
         inkscape:connector-curvature="0" />
      <path
         sodipodi:type="arc"
         style="fill:none;stroke:none;stroke-width:0.601978;stroke-miterlimit:4;stroke-dasharray:none;stroke-opacity:1"
         id="path3220"
         sodipodi:cx="30.630632"
         sodipodi:cy="118.54601"
         sodipodi:rx="97.141075"
         sodipodi:ry="97.141075"
         sodipodi:start="4.7109047"
         sodipodi:end="1.5704105"
         sodipodi:arc-type="slice"
         d="m 30.486448,21.405045 a 97.141075,97.141075 0 0 1 84.216462,48.476396 97.141075,97.141075 0 0 1 0.0909,97.171839 97.141075,97.141075 0 0 1 -84.125658,48.6338 l -0.03748,-97.14107 z" />
      <rect
         style="fill:#000000;fill-opacity:1;stroke:none;stroke-width:0.264583"
         id="rect3996"
         width="20.441122"
         height="4.934063"
         x="104.92658"
         y="116.079"
         rx="1.2374048"
         ry="3.8670878" />
      <rect
         ry="2.0595746"
         rx="0.96066099"
         y="98.238266"
         x="5.3022809"
         height="2.6278355"
         width="15.869494"
         id="rect4000"
         style="fill:#ff0000;fill-opacity:1;stroke:none;stroke-width:0.264583"
         inkscape:transform-center-x="-204.94147"
         transform="rotate(-50.090269)"
         inkscape:transform-center-y="-245.0226" />
      <rect
         ry="3.8670878"
         rx="1.2374047"
         y="83.570694"
         x="-12.81841"
         height="4.934063"
         width="20.44112"
         id="rect4016"
         style="fill:#000000;fill-opacity:1;stroke:none;stroke-width:0.264583"
         inkscape:transform-center-x="-160.46972"
         transform="rotate(-59.843801)"
         inkscape:transform-center-y="-276.20013" />
      <rect
         ry="3.8670878"
         rx="1.2374047"
         y="30.593931"
         x="192.18727"
         height="4.934063"
         width="20.44112"
         id="rect4018"
         style="fill:#000000;fill-opacity:1;stroke:none;stroke-width:0.264583"
         inkscape:transform-center-x="-160.4543"
         transform="rotate(59.847026)"
         inkscape:transform-center-y="276.20913" />
      <rect
         inkscape:transform-center-y="-159.84743"
         transform="rotate(-30.027178)"
         inkscape:transform-center-x="-276.56078"
         style="fill:#000000;fill-opacity:1;stroke:none;stroke-width:0.264583"
         id="rect4024"
         width="20.441122"
         height="4.9340634"
         x="41.493866"
         y="115.49662"
         rx="1.2374048"
         ry="3.8670878" />
      <rect
         ry="3.8670878"
         rx="1.2374046"
         y="84.741463"
         x="160.2382"
         height="4.934063"
         width="20.441122"
         id="rect4026"
         style="fill:#000000;fill-opacity:1;stroke:none;stroke-width:0.264583"
         inkscape:transform-center-x="-276.37566"
         transform="rotate(30.093455)"
         inkscape:transform-center-y="160.16718" />
      <rect
         inkscape:transform-center-y="-204.92305"
         transform="rotate(-39.905439)"
         inkscape:transform-center-x="-245.03801"
         style="fill:#ff0000;fill-opacity:1;stroke:none;stroke-width:0.264583"
         id="rect4044"
         width="15.869495"
         height="2.6278358"
         x="24.028702"
         y="109.27351"
         rx="0.96066105"
         ry="2.0595746" />
      <rect
         ry="2.0595746"
         rx="0.96066099"
         y="120.52547"
         x="64.475456"
         height="2.6278355"
         width="15.869495"
         id="rect4046"
         style="fill:#ff0000;fill-opacity:1;stroke:none;stroke-width:0.264583"
         inkscape:transform-center-x="-299.85823"
         transform="rotate(-20.162004)"
         inkscape:transform-center-y="-110.10056" />
      <rect
         inkscape:transform-center-y="-55.382986"
         transform="rotate(-9.9843697)"
         inkscape:transform-center-x="-314.59473"
         style="fill:#ff0000;fill-opacity:1;stroke:none;stroke-width:0.264583"
         id="rect4048"
         width="15.869495"
         height="2.6278358"
         x="86.195045"
         y="120.74748"
         rx="0.96066099"
         ry="2.0595746" />
      <rect
         ry="2.0595746"
         rx="0.96066105"
         y="99.583237"
         x="145.94432"
         height="2.6278358"
         width="15.869495"
         id="rect4050"
         style="fill:#ff0000;fill-opacity:1;stroke:none;stroke-width:0.264583"
         inkscape:transform-center-x="-300.1314"
         transform="rotate(20.019338)"
         inkscape:transform-center-y="109.35372" />
      <rect
         ry="2.0595746"
         rx="0.96066099"
         y="110.02753"
         x="127.51782"
         height="2.6278358"
         width="15.869495"
         id="rect4052"
         style="fill:#ff0000;fill-opacity:1;stroke:none;stroke-width:0.264583"
         inkscape:transform-center-x="-314.48678"
         transform="rotate(10.095407)"
         inkscape:transform-center-y="55.99266" />
      <rect
         inkscape:transform-center-y="205.68684"
         transform="rotate(40.084234)"
         inkscape:transform-center-x="-244.39724"
         style="fill:#ff0000;fill-opacity:1;stroke:none;stroke-width:0.264583"
         id="rect4054"
         width="15.869495"
         height="2.6278358"
         x="176.35056"
         y="69.662048"
         rx="0.96066099"
         ry="2.0595746" />
      <rect
         ry="2.0595746"
         rx="0.96066105"
         y="50.999664"
         x="187.28264"
         height="2.6278358"
         width="15.869495"
         id="rect4056"
         style="fill:#ff0000;fill-opacity:1;stroke:none;stroke-width:0.264583"
         inkscape:transform-center-x="-204.39212"
         transform="rotate(50.218578)"
         inkscape:transform-center-y="245.48097" />
      <g
         style="font-style:normal;font-variant:normal;font-weight:bold;font-stretch:normal;font-size:40.8605px;line-height:125%;font-family:'Eras Demi ITC';-inkscape-font-specification:'Eras Demi ITC Bold';letter-spacing:0px;word-spacing:0px;fill:#000000;fill-opacity:1;stroke:none"
         id="text4161"
         transform="matrix(0.26458333,0,0,0.26458333,-138.46775,154.46087)">
        <path
           d="m 746.7533,-430.11423 c 0.11887,-1.49571 0.21613,-3.06896 0.29179,-4.71976 l 0.24154,-5.08856 c 0.0848,-1.72373 0.13995,-3.12083 0.16535,-4.19129 -0.0595,0.19184 -0.2048,0.36421 -0.43607,0.51712 -0.23128,0.15293 -0.86998,0.502 -1.91611,1.04721 0.0432,-0.72785 0.0794,-1.41721 0.10861,-2.06808 0.0292,-0.65085 0.0438,-1.20161 0.0438,-1.65229 0.37122,-0.2118 0.80202,-0.46644 1.2924,-0.76393 0.49037,-0.29745 0.78041,-0.47658 0.87011,-0.53739 0.0897,-0.0608 0.2718,-0.20005 0.54631,-0.41783 0.49063,0.0168 1.13258,0.0251 1.92584,0.0251 0.78891,2e-5 1.54082,-0.008 2.25572,-0.0251 l -0.14346,2.01257 c -0.0351,0.41177 -0.0735,0.9813 -0.1151,1.70861 l -0.50902,10.13254 -0.0373,1.48085 c -0.008,0.31125 -0.0114,0.62655 -0.0113,0.9459 l 0.0138,1.59433 c -0.7657,-0.0168 -1.48762,-0.0251 -2.16576,-0.0251 -0.78515,0 -1.59217,0.008 -2.42107,0.0251 z"
           style="font-style:normal;font-variant:normal;font-weight:bold;font-stretch:normal;font-size:26.5597px;font-family:'Eras Demi ITC';-inkscape-font-specification:'Eras Demi ITC Bold';baseline-shift:super"
           id="path4315" />
        <path
           d="m 749.77445,-413.77002 6.4518,-11.83992 6.7336,-12.04568 1.92532,-3.6137 c 0.71741,0.0258 1.30431,0.0387 1.76071,0.0387 0.47217,3e-5 1.14013,-0.0129 2.00387,-0.0387 l -2.99147,5.67493 -10.38596,18.69698 -1.6435,3.12739 c -0.72906,-0.0258 -1.26109,-0.0387 -1.59612,-0.0387 -0.47301,0 -1.22576,0.0129 -2.25825,0.0387 z"
           id="path4317" />
        <path
           d="m 767.37931,-405.59791 c 0.11887,-1.49572 0.21614,-3.06897 0.29179,-4.71977 l 0.24154,-5.08856 c 0.0848,-1.72373 0.13995,-3.12083 0.16535,-4.19129 -0.0594,0.19184 -0.2048,0.36422 -0.43607,0.51712 -0.23128,0.15294 -0.86998,0.50201 -1.91611,1.04722 0.0432,-0.72785 0.0794,-1.41721 0.10861,-2.06809 0.0292,-0.65085 0.0438,-1.20161 0.0438,-1.65228 0.37122,-0.21181 0.80202,-0.46645 1.29241,-0.76393 0.49037,-0.29745 0.7804,-0.47658 0.87011,-0.53739 0.0897,-0.0608 0.27179,-0.20005 0.5463,-0.41783 0.49064,0.0168 1.13258,0.0251 1.92584,0.0251 0.78891,2e-5 1.54082,-0.008 2.25573,-0.0251 l -0.14347,2.01256 c -0.0351,0.41177 -0.0735,0.98131 -0.11509,1.70862 l -0.50902,10.13254 -0.0373,1.48085 c -0.008,0.31125 -0.0113,0.62655 -0.0113,0.9459 l 0.0138,1.59433 c -0.7657,-0.0168 -1.48762,-0.0251 -2.16576,-0.0251 -0.78515,0 -1.59218,0.008 -2.42108,0.0251 z"
           style="font-style:normal;font-variant:normal;font-weight:bold;font-stretch:normal;font-size:26.5597px;font-family:'Eras Demi ITC';-inkscape-font-specification:'Eras Demi ITC Bold';baseline-shift:sub"
           id="path4319" />
      </g>
      <g
         style="font-style:normal;font-variant:normal;font-weight:bold;font-stretch:normal;font-size:33.1527px;line-height:125%;font-family:'Eras Demi ITC';-inkscape-font-specification:'Eras Demi ITC Bold';letter-spacing:0px;word-spacing:0px;fill:#000000;fill-opacity:1;stroke:none"
         id="text4161-1"
         transform="matrix(0.26458333,0,0,0.26458333,-138.46775,154.46087)">
        <path
           d="m 889.22758,-138.82356 c 0.0965,-1.21357 0.17536,-2.49005 0.23675,-3.82945 l 0.19598,-4.12866 c 0.0688,-1.39858 0.11354,-2.53213 0.13415,-3.40066 -0.0482,0.15565 -0.16617,0.29551 -0.35381,0.41957 -0.18765,0.12409 -0.70587,0.40731 -1.55466,0.84967 0.0351,-0.59055 0.0644,-1.14987 0.0881,-1.67797 0.0237,-0.52807 0.0355,-0.97494 0.0355,-1.3406 0.30119,-0.17185 0.65073,-0.37846 1.04861,-0.61983 0.39786,-0.24134 0.63319,-0.38667 0.70597,-0.43601 0.0728,-0.0493 0.22053,-0.16231 0.44325,-0.33901 0.39809,0.0136 0.91894,0.0204 1.56256,0.0204 0.64009,2e-5 1.25016,-0.007 1.83021,-0.0204 l -0.1164,1.63292 c -0.0285,0.33409 -0.0596,0.79619 -0.0934,1.3863 l -0.41299,8.22117 -0.0303,1.20151 c -0.006,0.25254 -0.009,0.50836 -0.009,0.76747 l 0.0112,1.29358 c -0.62126,-0.0136 -1.207,-0.0204 -1.75722,-0.0204 -0.63704,0 -1.29183,0.007 -1.96437,0.0204 z"
           style="font-style:normal;font-variant:normal;font-weight:bold;font-stretch:normal;font-size:21.5496px;font-family:'Eras Demi ITC';-inkscape-font-specification:'Eras Demi ITC Bold';baseline-shift:super"
           id="path4301" />
        <path
           d="m 891.67883,-125.56248 5.23475,-9.60647 5.4634,-9.77342 1.56213,-2.93202 c 0.58208,0.0209 1.05827,0.0314 1.42858,0.0314 0.3831,2e-5 0.92505,-0.0104 1.62586,-0.0314 l -2.42716,4.60443 -8.42679,15.17004 -1.33348,2.53744 c -0.59152,-0.0209 -1.0232,-0.0314 -1.29502,-0.0314 -0.38379,0 -0.99454,0.0105 -1.83227,0.0314 z"
           id="path4303" />
        <path
           d="m 901.73282,-118.93193 c 0.0206,-0.413 0.0309,-0.69513 0.0309,-0.84639 l 0.0651,-1.5882 c 0.88168,-0.79048 1.68663,-1.55334 2.41486,-2.28859 0.72822,-0.73524 1.45459,-1.50369 2.17909,-2.30536 0.7245,-0.80165 1.28075,-1.4594 1.66877,-1.97325 0.28935,-0.37704 0.48467,-0.6653 0.58595,-0.8648 0.10127,-0.19947 0.16759,-0.36311 0.19894,-0.49093 0.0313,-0.12779 0.047,-0.25307 0.047,-0.37584 -1e-5,-0.32267 -0.0983,-0.58693 -0.29495,-0.79278 -0.19664,-0.20583 -0.47713,-0.37035 -0.84145,-0.49356 -0.36434,-0.12319 -0.79225,-0.18479 -1.28372,-0.1848 -0.45947,1e-5 -0.97287,0.043 -1.54019,0.1289 -0.56733,0.0859 -1.37929,0.24246 -2.4359,0.46955 l 0.19795,-1.287 c 0.0447,-0.27663 0.11267,-0.73917 0.20387,-1.38762 1.72477,-0.31346 3.32195,-0.4702 4.79157,-0.47021 0.67473,1e-5 1.33642,0.0666 1.98509,0.19992 0.64864,0.13329 1.22802,0.36095 1.73814,0.68296 0.5101,0.32204 0.88616,0.70095 1.12818,1.13673 0.242,0.43581 0.36301,0.88848 0.36302,1.35803 -10e-6,0.2657 -0.0278,0.53774 -0.0835,0.81613 -0.0557,0.27841 -0.14579,0.55528 -0.27029,0.8306 -0.16881,0.38846 -0.39657,0.80025 -0.68329,1.23538 -0.28674,0.43515 -0.74172,1.02231 -1.36493,1.76149 -0.62324,0.73919 -1.28756,1.47992 -1.99298,2.22217 -0.70544,0.74226 -1.48606,1.42007 -2.34186,2.03342 h 0.70565 l 2.30042,-0.0105 c 0.80144,0 1.36537,-0.008 1.69179,-0.0234 0.32639,-0.0156 0.83069,-0.049 1.5129,-0.10029 -0.0158,0.36697 -0.0391,0.72012 -0.07,1.05946 -0.0309,0.33935 -0.0718,0.85559 -0.12265,1.54875 -1.70374,-0.0136 -3.39826,-0.0204 -5.08356,-0.0204 -2.06325,0 -3.86321,0.007 -5.39989,0.0204 z"
           style="font-style:normal;font-variant:normal;font-weight:bold;font-stretch:normal;font-size:21.5496px;font-family:'Eras Demi ITC';-inkscape-font-specification:'Eras Demi ITC Bold';baseline-shift:sub"
           id="path4305" />
      </g>
      <g
         style="font-style:normal;font-variant:normal;font-weight:bold;font-stretch:normal;font-size:40.8605px;line-height:125%;font-family:'Eras Demi ITC';-inkscape-font-specification:'Eras Demi ITC Bold';letter-spacing:0px;word-spacing:0px;fill:#000000;fill-opacity:1;stroke:none"
         id="text4161-1-9"
         transform="matrix(0.26458333,0,0,0.26458333,-138.46775,154.46087)">
        <path
           d="m 749.09404,130.54059 c 1.3925,2e-5 2.59128,0.3037 3.59636,0.91104 1.00505,0.60738 1.77885,1.56287 2.32138,2.86647 0.54251,1.30363 0.81377,2.8138 0.81378,4.53051 -10e-6,1.34982 -0.16388,2.69761 -0.49159,4.04337 -0.32774,1.34576 -0.78651,2.45877 -1.37629,3.33901 -0.58982,0.88024 -1.40063,1.56609 -2.43243,2.05755 -1.03182,0.49145 -2.13483,0.73718 -3.30902,0.73718 -1.138,0 -2.1532,-0.21979 -3.0456,-0.65937 -0.8924,-0.43958 -1.61729,-1.05518 -2.17467,-1.84681 -0.55738,-0.79162 -0.94442,-1.67065 -1.1611,-2.63709 -0.21668,-0.96642 -0.32502,-1.9619 -0.32502,-2.98643 0,-1.406 0.16291,-2.78688 0.48875,-4.14266 0.32584,-1.35574 0.80473,-2.49982 1.43668,-3.43222 0.63195,-0.93237 1.45261,-1.62889 2.46201,-2.08957 1.00938,-0.46064 2.07497,-0.69096 3.19676,-0.69098 z m -0.10213,3.16353 c -0.27721,1e-5 -0.5532,0.0565 -0.82796,0.1694 -0.27478,0.11295 -0.54699,0.3041 -0.81662,0.57346 -0.26964,0.26938 -0.49538,0.58981 -0.6772,0.9613 -0.18184,0.37151 -0.34894,0.8273 -0.50132,1.36737 -0.15239,0.5401 -0.27221,1.18597 -0.35947,1.9376 -0.0873,0.75164 -0.13091,1.52571 -0.13091,2.32219 0,1.13854 0.11023,2.05066 0.3307,2.73637 0.22046,0.68572 0.53847,1.20771 0.95401,1.56596 0.41553,0.35827 0.88834,0.53739 1.41844,0.53739 0.28908,0 0.57142,-0.0577 0.84701,-0.17305 0.27558,-0.11536 0.56251,-0.33975 0.86079,-0.67315 0.29827,-0.3334 0.57318,-0.84039 0.82473,-1.52098 0.25152,-0.68057 0.43605,-1.4337 0.55359,-2.25937 0.11752,-0.82566 0.17628,-1.65538 0.1763,-2.48916 -2e-5,-1.14663 -0.10836,-2.08767 -0.32503,-2.82311 -0.2167,-0.73541 -0.52646,-1.29131 -0.92928,-1.66768 -0.40285,-0.37635 -0.86877,-0.56453 -1.39778,-0.56454 z"
           style="font-size:26.5597px;baseline-shift:super"
           id="path4287" />
        <path
           d="m 749.83353,165.06517 6.4518,-11.83992 6.7336,-12.04568 1.92532,-3.6137 c 0.71741,0.0258 1.30431,0.0387 1.76071,0.0387 0.47217,3e-5 1.14013,-0.0129 2.00387,-0.0387 l -2.99147,5.67493 -10.38596,18.69698 -1.6435,3.12739 c -0.72905,-0.0258 -1.26109,-0.0387 -1.59611,-0.0387 -0.47301,0 -1.22576,0.0129 -2.25826,0.0387 z"
           id="path4289" />
        <path
           d="m 767.43839,173.23728 c 0.11887,-1.49572 0.21614,-3.06897 0.2918,-4.71977 l 0.24154,-5.08856 c 0.0848,-1.72373 0.13994,-3.12083 0.16535,-4.19129 -0.0594,0.19184 -0.20481,0.36422 -0.43607,0.51712 -0.23128,0.15294 -0.86999,0.50201 -1.91612,1.04722 0.0432,-0.72785 0.0794,-1.41721 0.10862,-2.06809 0.0292,-0.65085 0.0438,-1.20161 0.0438,-1.65228 0.37122,-0.21181 0.80202,-0.46645 1.2924,-0.76393 0.49037,-0.29745 0.7804,-0.47658 0.87011,-0.53739 0.0897,-0.0608 0.27179,-0.20005 0.5463,-0.41783 0.49064,0.0168 1.13259,0.0251 1.92584,0.0251 0.78892,2e-5 1.54082,-0.008 2.25573,-0.0251 l -0.14346,2.01256 c -0.0351,0.41177 -0.0735,0.98131 -0.1151,1.70862 l -0.50902,10.13254 -0.0373,1.48085 c -0.008,0.31125 -0.0114,0.62655 -0.0113,0.9459 l 0.0138,1.59433 c -0.7657,-0.0168 -1.48762,-0.0251 -2.16576,-0.0251 -0.78515,0 -1.59218,0.008 -2.42108,0.0251 z"
           style="font-style:normal;font-variant:normal;font-weight:bold;font-stretch:normal;font-size:26.5597px;font-family:'Eras Demi ITC';-inkscape-font-specification:'Eras Demi ITC Bold';baseline-shift:sub"
           id="path4291" />
      </g>
      <g
         style="font-style:normal;font-variant:normal;font-weight:bold;font-stretch:normal;font-size:33.1527px;line-height:125%;font-family:'Eras Demi ITC';-inkscape-font-specification:'Eras Demi ITC Bold';letter-spacing:0px;word-spacing:0px;fill:#000000;fill-opacity:1;stroke:none"
         id="text4161-1-9-2"
         transform="matrix(0.26458333,0,0,0.26458333,-138.46775,154.46087)">
        <path
           d="m 849.50736,-10.725948 c 0.0965,-1.213565 0.17537,-2.490044 0.23675,-3.829441 l 0.19598,-4.128669 c 0.0688,-1.398573 0.11355,-2.532125 0.13416,-3.40066 -0.0482,0.155653 -0.16617,0.295511 -0.35381,0.419575 -0.18765,0.124086 -0.70587,0.407309 -1.55466,0.849672 0.0351,-0.590551 0.0644,-1.149874 0.0881,-1.67797 0.0237,-0.528073 0.0355,-0.97494 0.0355,-1.340601 0.3012,-0.17185 0.65073,-0.378459 1.04861,-0.619826 0.39787,-0.24134 0.63319,-0.386679 0.70598,-0.436016 0.0728,-0.04931 0.22052,-0.162313 0.44325,-0.339014 0.39808,0.01361 0.91893,0.0204 1.56255,0.02039 0.6401,1.5e-5 1.25017,-0.0068 1.83022,-0.02039 l -0.11641,1.632922 c -0.0285,0.334094 -0.0596,0.796196 -0.0934,1.386307 l -0.413,8.221166 -0.0303,1.201509 c -0.006,0.252536 -0.009,0.508358 -0.009,0.767467 l 0.0112,1.293579 c -0.62126,-0.01359 -1.207,-0.02039 -1.75721,-0.02039 -0.63705,0 -1.29184,0.0068 -1.96438,0.02039 z"
           style="font-style:normal;font-variant:normal;font-weight:bold;font-stretch:normal;font-size:21.5496px;font-family:'Eras Demi ITC';-inkscape-font-specification:'Eras Demi ITC Bold';baseline-shift:super"
           id="path4294" />
        <path
           d="m 851.95862,2.5351398 5.23475,-9.6064775 5.4634,-9.7734143 1.56212,-2.932025 c 0.58208,0.02093 1.05828,0.03139 1.42858,0.03136 0.3831,2.3e-5 0.92506,-0.01043 1.62587,-0.03136 l -2.42717,4.604432 -8.42679,15.17003925 -1.33347,2.53744555 c -0.59153,-0.020909 -1.0232,-0.031364 -1.29503,-0.031364 -0.38378,10e-8 -0.99453,0.010455 -1.83226,0.031364 z"
           id="path4296" />
        <path
           d="m 867.54205,9.1656835 c 0.13108,-1.5415082 0.22052,-2.9582841 0.26831,-4.2503318 h -1.84862 l -4.032,0.061818 c 0.0149,-0.2538449 0.0376,-0.7135353 0.0681,-1.3790726 0.0305,-0.6655261 0.0457,-1.1447265 0.0457,-1.4376025 l 0.88913,-1.1225927 c 0.11575,-0.15431803 0.39086,-0.52698071 0.82534,-1.11798913 l 2.21165,-3.03040827 c 0.26042,-0.3704583 0.47755,-0.667054 0.65139,-0.8897879 0.17383,-0.2227076 0.45519,-0.6679299 0.84408,-1.3356682 0.78697,0.012729 1.51564,0.019086 2.186,0.019072 0.62826,1.44e-5 1.30738,-0.00678 2.03737,-0.020387 -0.2087,3.0904842 -0.33606,5.65155372 -0.38209,7.6832162 0.0728,0.00176 0.38778,0.00264 0.94503,0.00263 0.53662,6.8e-6 0.97483,-0.010296 1.31463,-0.030909 -0.0206,0.6304644 -0.0309,1.319452 -0.0309,2.0669647 v 0.5616251 c -0.58707,-0.027617 -1.36265,-0.041427 -2.32674,-0.041431 -0.0132,0.1994884 -0.0247,0.4246205 -0.0345,0.675397 -0.01,0.2507836 -0.0197,0.7060897 -0.0296,1.3659197 -0.01,0.6598344 -0.0141,1.1335544 -0.0128,1.4211615 v 0.7983758 c -0.68396,-0.013591 -1.26684,-0.020387 -1.74867,-0.020387 -0.43755,1e-7 -1.05113,0.0068 -1.84073,0.020387 z m 0.67079,-6.724376 c 0.0136,-0.261734 0.0204,-0.4241711 0.0204,-0.4873118 l 0.19597,-4.7869666 c -0.77821,1.4792637 -1.3543,2.45936655 -1.72828,2.94031156 l -1.87361,2.33396684 z"
           style="font-style:normal;font-variant:normal;font-weight:bold;font-stretch:normal;font-size:21.5496px;font-family:'Eras Demi ITC';-inkscape-font-specification:'Eras Demi ITC Bold';baseline-shift:sub"
           id="path4298" />
      </g>
      <g
         style="font-style:normal;font-variant:normal;font-weight:bold;font-stretch:normal;font-size:33.1527px;line-height:125%;font-family:'Eras Demi ITC';-inkscape-font-specification:'Eras Demi ITC Bold';letter-spacing:0px;word-spacing:0px;fill:#000000;fill-opacity:1;stroke:none"
         id="text4161-1-9-1"
         transform="matrix(0.26458333,0,0,0.26458333,-138.46775,154.46087)">
        <path
           d="m 845.65944,-267.83266 c -0.0605,-1.02373 -0.13241,-1.95845 -0.21571,-2.80418 1.61166,0.51603 3.01287,0.77404 4.20364,0.77404 0.57521,0 1.0908,-0.0893 1.54677,-0.26799 0.45596,-0.17865 0.81349,-0.43185 1.07261,-0.75957 0.2591,-0.32772 0.38866,-0.71299 0.38867,-1.15581 -1e-5,-0.36871 -0.10425,-0.6904 -0.31271,-0.96508 -0.20848,-0.27467 -0.54925,-0.48446 -1.0223,-0.62937 -0.47307,-0.14489 -1.09257,-0.21734 -1.8585,-0.21735 -0.49192,1e-5 -1.09541,0.0311 -1.81048,0.0934 0.0697,-0.9527 0.12933,-1.8427 0.17888,-2.67002 0.56162,0.0688 1.03315,0.10326 1.41458,0.10325 0.59231,1e-5 1.14199,-0.0544 1.64904,-0.1631 0.50703,-0.10872 0.89635,-0.32508 1.16797,-0.64909 0.27159,-0.32399 0.4074,-0.67451 0.40741,-1.05157 -10e-6,-0.15124 -0.0226,-0.29757 -0.0677,-0.43897 -0.0452,-0.14138 -0.1083,-0.27072 -0.1894,-0.38801 -0.0811,-0.11727 -0.18305,-0.22074 -0.30581,-0.31041 -0.12276,-0.0896 -0.25911,-0.16308 -0.40905,-0.22031 -0.14995,-0.0572 -0.36883,-0.10586 -0.65665,-0.14599 -0.28784,-0.0401 -0.58936,-0.0602 -0.90459,-0.0602 -0.43668,2e-5 -0.89494,0.029 -1.37479,0.0868 -0.47987,0.0579 -1.1854,0.1699 -2.11662,0.33606 l 0.20781,-1.14627 0.26635,-1.45536 c 0.89263,-0.12406 1.62305,-0.20769 2.19126,-0.25089 0.56819,-0.0432 1.15985,-0.0648 1.77497,-0.0648 0.73392,2e-5 1.44987,0.0602 2.14785,0.18052 0.69797,0.12037 1.30519,0.33563 1.82167,0.64581 0.51645,0.3102 0.89778,0.71136 1.14396,1.20348 0.24617,0.49215 0.36926,1.02736 0.36927,1.60563 -10e-6,0.37574 -0.0543,0.74654 -0.16277,1.1124 -0.10852,0.36588 -0.27052,0.70577 -0.48599,1.01967 -0.2155,0.31392 -0.45773,0.57402 -0.7267,0.78029 -0.26898,0.20629 -0.5293,0.37048 -0.78094,0.49257 -0.25167,0.12211 -0.56098,0.17199 -0.92794,0.14962 0.38055,-0.008 0.71112,0.0373 0.99173,0.13679 0.28058,0.0995 0.55767,0.251 0.83125,0.45443 0.27357,0.20343 0.50572,0.43898 0.69645,0.70663 0.1907,0.26767 0.33428,0.57753 0.43075,0.92958 0.0964,0.35206 0.14467,0.71157 0.14468,1.07853 -1e-5,0.67825 -0.16102,1.31967 -0.48304,1.92425 -0.32203,0.6046 -0.78885,1.10605 -1.40044,1.50436 -0.61162,0.39831 -1.29896,0.67682 -2.06203,0.83553 -0.76309,0.15871 -1.55741,0.23807 -2.38296,0.23807 -0.61074,0 -1.23506,-0.0382 -1.87297,-0.11443 -0.63791,-0.0763 -1.47706,-0.23062 -2.51744,-0.46298 z"
           style="font-style:normal;font-variant:normal;font-weight:bold;font-stretch:normal;font-size:21.5496px;font-family:'Eras Demi ITC';-inkscape-font-specification:'Eras Demi ITC Bold';baseline-shift:super"
           id="path4308" />
        <path
           d="m 852.04273,-254.24144 5.23474,-9.60648 5.4634,-9.77341 1.56213,-2.93203 c 0.58208,0.0209 1.05827,0.0314 1.42858,0.0314 0.3831,2e-5 0.92506,-0.0104 1.62586,-0.0314 l -2.42716,4.60444 -8.42679,15.17003 -1.33347,2.53745 c -0.59153,-0.0209 -1.02321,-0.0314 -1.29503,-0.0314 -0.38378,0 -0.99454,0.0104 -1.83226,0.0314 z"
           id="path4310" />
        <path
           d="m 867.62615,-247.6109 c 0.13109,-1.5415 0.22053,-2.95828 0.26832,-4.25033 h -1.84863 l -4.03199,0.0618 c 0.0149,-0.25384 0.0376,-0.71353 0.0681,-1.37907 0.0305,-0.66553 0.0457,-1.14473 0.0457,-1.4376 l 0.88913,-1.1226 c 0.11574,-0.15432 0.39086,-0.52698 0.82534,-1.11799 l 2.21164,-3.0304 c 0.26042,-0.37046 0.47756,-0.66706 0.6514,-0.88979 0.17383,-0.22271 0.45519,-0.66793 0.84408,-1.33567 0.78697,0.0127 1.51563,0.0191 2.186,0.0191 0.62825,2e-5 1.30738,-0.007 2.03737,-0.0204 -0.2087,3.09049 -0.33607,5.65156 -0.38209,7.68322 0.0728,0.002 0.38778,0.003 0.94503,0.003 0.53662,1e-5 0.97483,-0.0103 1.31462,-0.0309 -0.0206,0.63047 -0.0309,1.31945 -0.0309,2.06697 v 0.56162 c -0.58706,-0.0276 -1.36264,-0.0414 -2.32673,-0.0414 -0.0132,0.19949 -0.0247,0.42462 -0.0345,0.6754 -0.01,0.25078 -0.0197,0.70609 -0.0296,1.36592 -0.01,0.65983 -0.0141,1.13355 -0.0128,1.42116 v 0.79837 c -0.68396,-0.0136 -1.26685,-0.0204 -1.74867,-0.0204 -0.43756,0 -1.05114,0.007 -1.84074,0.0204 z m 0.6708,-6.72437 c 0.0136,-0.26174 0.0204,-0.42417 0.0204,-0.48731 l 0.19598,-4.78697 c -0.77821,1.47926 -1.35431,2.45937 -1.72828,2.94031 l -1.87362,2.33397 z"
           style="font-style:normal;font-variant:normal;font-weight:bold;font-stretch:normal;font-size:21.5496px;font-family:'Eras Demi ITC';-inkscape-font-specification:'Eras Demi ITC Bold';baseline-shift:sub"
           id="path4312" />
      </g>
    </g>
  </g>
</svg>
