<?xml version="1.0"?>
<svg xmlns="http://www.w3.org/2000/svg" width="26" height="26" viewBox="0 0 26 26">
    <path d="M 5 0 C 3.343 0 2 1.343 2 3 L 2 24 L 1 24 C 0.449 24 0 24.449 0 25 L 0 26 L 19 26 L 19 25 C 19 24.449 18.551 24 18 24 L 17 24 L 17 15.03125 C 17.80531 15.055022 18.423773 15.092888 18.59375 15.1875 C 18.712745 15.25374 18.753379 15.309406 18.84375 15.5625 C 18.934121 15.815594 19 16.279055 19 17 C 19 19.068719 19.14341 20.645557 19.625 21.875 C 19.865795 22.489721 20.213212 23.049896 20.71875 23.4375 C 21.224288 23.825104 21.855798 24 22.5 24 C 23.144202 24 23.775712 23.825104 24.28125 23.4375 C 24.786788 23.049896 25.134205 22.489721 25.375 21.875 C 25.85659 20.645557 26 19.068719 26 17 L 26 11.0625 C 26 10.660385 26.06367 10.333083 26 9.84375 C 25.936327 9.3544171 25.701416 8.8048033 25.3125 8.25 C 24.534668 7.1403934 23.054535 5.6170345 19.71875 2.28125 A 1.0001 1.0001 0 0 0 18.78125 2 A 1.0001 1.0001 0 0 0 18.28125 3.71875 C 19.503444 4.9409446 20.254606 5.7040949 21.03125 6.5 L 21.03125 9.375 C 21.03125 10.441 21.47925 10.9145 22.03125 11.5625 L 24 13.46875 L 24 17 C 24 18.966281 23.82966 20.394443 23.53125 21.15625 C 23.382045 21.537154 23.201962 21.736822 23.0625 21.84375 C 22.923038 21.950678 22.795798 22 22.5 22 C 22.204202 22 22.076962 21.950678 21.9375 21.84375 C 21.798038 21.736822 21.617955 21.537154 21.46875 21.15625 C 21.17034 20.394443 21 18.966281 21 17 C 21 16.155945 20.934004 15.477844 20.71875 14.875 C 20.503496 14.272156 20.088005 13.730014 19.5625 13.4375 C 18.774242 12.99873 17.953449 12.985931 17 13 L 17 3 C 17 1.343 15.657 0 14 0 L 5 0 z M 5 2 L 14 2 C 14.552 2 15 2.448 15 3 L 15 9 C 15 9.552 14.552 10 14 10 L 5 10 C 4.448 10 4 9.552 4 9 L 4 3 C 4 2.448 4.448 2 5 2 z"/>
</svg>
