<?xml version="1.0"?>
<svg xmlns="http://www.w3.org/2000/svg" viewBox="0 0 50 50">
    <path style="line-height:normal;text-indent:0;text-align:start;text-decoration-line:none;text-decoration-style:solid;text-decoration-color:#000;text-transform:none;block-progression:tb;isolation:auto;mix-blend-mode:normal" d="M 24.429688 9 C 20.014482 9 14.553386 10.73461 10.074219 13.548828 C 5.5950512 16.363046 2 20.331014 2 25 C 2 29.668986 5.5950512 33.636954 10.074219 36.451172 C 14.553386 39.26539 20.014482 41 24.429688 41 C 25.581097 41 26.590628 40.349023 27.292969 39.427734 C 27.995309 38.506446 28.491609 37.302014 28.882812 35.869141 C 29.665221 33.003393 30 29.19475 30 25 C 30 20.80525 29.665221 16.996607 28.882812 14.130859 C 28.491609 12.697986 27.995309 11.493554 27.292969 10.572266 C 26.590628 9.6509767 25.581097 9 24.429688 9 z M 24.429688 11 C 24.883277 11 25.247653 11.187695 25.703125 11.785156 C 26.158597 12.382618 26.603079 13.376077 26.953125 14.658203 C 27.653218 17.222455 28 20.91475 28 25 C 28 29.08525 27.653218 32.777545 26.953125 35.341797 C 26.603079 36.623923 26.158597 37.617382 25.703125 38.214844 C 25.247653 38.812305 24.883278 39 24.429688 39 C 20.554893 39 15.302005 37.373596 11.138672 34.757812 C 6.9753391 32.14203 4 28.611014 4 25 C 4 21.388986 6.9753391 17.85797 11.138672 15.242188 C 15.302005 12.626404 20.554893 11 24.429688 11 z M 31.335938 12 C 31.553937 12.615 31.742969 13.291 31.917969 14 L 48 14 L 48 12 L 31.335938 12 z M 32.625 18 C 32.7 18.641 32.764406 19.308 32.816406 20 L 48 20 L 48 18 L 32.625 18 z M 32.984375 24 C 32.989375 24.335 33 24.656 33 25 C 33 25.344 32.989375 25.665 32.984375 26 L 48 26 L 48 24 L 32.984375 24 z M 32.816406 30 C 32.764406 30.692 32.7 31.359 32.625 32 L 48 32 L 48 30 L 32.816406 30 z M 31.919922 36 C 31.744922 36.709 31.553938 37.385 31.335938 38 L 48 38 L 48 36 L 31.919922 36 z" font-weight="400" font-family="sans-serif" white-space="normal" overflow="visible"/>
</svg>
